<svg preserveAspectRatio="none" width="100%" height="100%" overflow="visible" style="display: block;" viewBox="0 0 67 21" fill="none" xmlns="http://www.w3.org/2000/svg">
<g id="Right Side">
<g id="Battery">
<path id="Rectangle" opacity="0.35" d="M45.0002 9.83325H61.6662C62.8628 9.83325 63.8332 10.8036 63.8332 12.0002V18.0002C63.833 19.1967 62.8627 20.1663 61.6662 20.1663H45.0002C43.8037 20.1663 42.8334 19.1967 42.8332 18.0002V12.0002C42.8332 10.8036 43.8036 9.83325 45.0002 9.83325Z" stroke="var(--stroke-0, white)"/>
<path id="Combined Shape" opacity="0.4" d="M65.3332 12.9999V16.9999C66.1379 16.6611 66.6612 15.8731 66.6612 14.9999C66.6612 14.1268 66.1379 13.3387 65.3332 12.9999" fill="var(--fill-0, white)"/>
<path id="Rectangle_2" d="M44.3332 12.4333C44.3332 11.8257 44.8257 11.3333 45.4332 11.3333H61.2332C61.8407 11.3333 62.3332 11.8257 62.3332 12.4333V17.5666C62.3332 18.1741 61.8407 18.6666 61.2332 18.6666H45.4332C44.8257 18.6666 44.3332 18.1741 44.3332 17.5666V12.4333Z" fill="var(--fill-0, white)"/>
</g>
<path id="Wifi" fill-rule="evenodd" clip-rule="evenodd" d="M29.6633 11.608C31.8792 11.6081 34.0104 12.4596 35.6163 13.9863C35.7373 14.1042 35.9306 14.1027 36.0497 13.983L37.2057 12.8163C37.266 12.7556 37.2996 12.6734 37.2991 12.5878C37.2986 12.5022 37.264 12.4204 37.203 12.3603C32.9879 8.3208 26.3381 8.3208 22.123 12.3603C22.0619 12.4203 22.0273 12.5021 22.0267 12.5877C22.0262 12.6733 22.0597 12.7556 22.12 12.8163L23.2763 13.983C23.3954 14.1029 23.5888 14.1044 23.7097 13.9863C25.3158 12.4595 27.4472 11.608 29.6633 11.608ZM29.6633 15.4037C30.8808 15.4036 32.0549 15.8561 32.9573 16.6733C33.0794 16.7893 33.2717 16.7868 33.3907 16.6677L34.5453 15.501C34.6061 15.4398 34.6399 15.3568 34.639 15.2705C34.6381 15.1843 34.6027 15.102 34.5407 15.042C31.7925 12.4856 27.5365 12.4856 24.7883 15.042C24.7263 15.102 24.6908 15.1843 24.69 15.2706C24.6892 15.3569 24.7231 15.4399 24.784 15.501L25.9383 16.6677C26.0573 16.7868 26.2496 16.7893 26.3717 16.6733C27.2735 15.8567 28.4467 15.4042 29.6633 15.4037ZM31.9763 17.9575C31.9781 18.044 31.9441 18.1274 31.8823 18.188L29.885 20.2037C29.8265 20.2629 29.7466 20.2963 29.6633 20.2963C29.58 20.2963 29.5002 20.2629 29.4417 20.2037L27.444 18.188C27.3823 18.1274 27.3483 18.0439 27.3502 17.9574C27.352 17.8709 27.3895 17.789 27.4537 17.731C28.7292 16.6521 30.5974 16.6521 31.873 17.731C31.9372 17.7891 31.9746 17.871 31.9763 17.9575Z" fill="var(--fill-0, white)"/>
<path id="Mobile Signal" fill-rule="evenodd" clip-rule="evenodd" d="M16 9.66663H15C14.4477 9.66663 14 10.1143 14 10.6666V19.3333C14 19.8856 14.4477 20.3333 15 20.3333H16C16.5523 20.3333 17 19.8856 17 19.3333V10.6666C17 10.1143 16.5523 9.66663 16 9.66663ZM10.3333 12H11.3333C11.8856 12 12.3333 12.4477 12.3333 13V19.3333C12.3333 19.8856 11.8856 20.3333 11.3333 20.3333H10.3333C9.78105 20.3333 9.33333 19.8856 9.33333 19.3333V13C9.33333 12.4477 9.78105 12 10.3333 12ZM6.66667 14.3333H5.66667C5.11438 14.3333 4.66667 14.781 4.66667 15.3333V19.3333C4.66667 19.8856 5.11438 20.3333 5.66667 20.3333H6.66667C7.21895 20.3333 7.66667 19.8856 7.66667 19.3333V15.3333C7.66667 14.781 7.21895 14.3333 6.66667 14.3333ZM2 16.3333H1C0.447715 16.3333 0 16.781 0 17.3333V19.3333C0 19.8856 0.447715 20.3333 1 20.3333H2C2.55228 20.3333 3 19.8856 3 19.3333V17.3333C3 16.781 2.55228 16.3333 2 16.3333Z" fill="var(--fill-0, white)"/>
<g id="Recording Indicator">
<circle id="Indicator" cx="7.33322" cy="3" r="3" fill="var(--fill-0, #32D74B)"/>
</g>
</g>
</svg>
