<svg preserveAspectRatio="none" width="100%" height="100%" overflow="visible" style="display: block;" viewBox="0 0 67 21" fill="none" xmlns="http://www.w3.org/2000/svg">
<g id="Right Side">
<g id="Battery">
<path id="Rectangle" opacity="0.35" d="M45.0003 9.83325H61.6664C62.863 9.83325 63.8333 10.8036 63.8333 12.0002V18.0002C63.8332 19.1967 62.8629 20.1663 61.6664 20.1663H45.0003C43.8038 20.1663 42.8335 19.1967 42.8333 18.0002V12.0002C42.8333 10.8036 43.8037 9.83325 45.0003 9.83325Z" stroke="var(--stroke-0, black)"/>
<path id="Combined Shape" opacity="0.4" d="M65.3333 12.9999V16.9999C66.1381 16.6611 66.6614 15.8731 66.6614 14.9999C66.6614 14.1268 66.1381 13.3387 65.3333 12.9999" fill="var(--fill-0, black)"/>
<path id="Rectangle_2" d="M44.3333 12.4333C44.3333 11.8257 44.8258 11.3333 45.4333 11.3333H61.2333C61.8409 11.3333 62.3333 11.8257 62.3333 12.4333V17.5666C62.3333 18.1741 61.8409 18.6666 61.2333 18.6666H45.4333C44.8258 18.6666 44.3333 18.1741 44.3333 17.5666V12.4333Z" fill="var(--fill-0, black)"/>
</g>
<path id="Wifi" d="M27.4538 17.731C28.7294 16.6521 30.5982 16.6521 31.8737 17.731C31.9378 17.789 31.9745 17.8711 31.9763 17.9575C31.978 18.044 31.9443 18.1274 31.8825 18.188L29.8855 20.2036C29.8269 20.2628 29.747 20.2964 29.6638 20.2964C29.5805 20.2964 29.5007 20.2628 29.4421 20.2036L27.4441 18.188C27.3825 18.1274 27.3485 18.0439 27.3503 17.9575C27.3521 17.8711 27.3897 17.7889 27.4538 17.731ZM24.7888 15.0415C27.5369 12.4855 31.7926 12.4855 34.5407 15.0415C34.6027 15.1014 34.6384 15.1839 34.6394 15.27C34.6402 15.3562 34.6063 15.4393 34.5456 15.5005L33.3913 16.6675C33.2724 16.7866 33.0798 16.7892 32.9577 16.6733C32.0553 15.8562 30.8812 15.4038 29.6638 15.4038C28.4471 15.4043 27.2737 15.8567 26.3718 16.6733C26.2497 16.7892 26.0571 16.7866 25.9382 16.6675L24.7839 15.5005C24.7232 15.4394 24.6893 15.3561 24.6902 15.27C24.6911 15.1839 24.7268 15.1013 24.7888 15.0415ZM22.1237 12.3599C26.3389 8.32069 32.9889 8.32044 37.2038 12.3599C37.2647 12.4198 37.299 12.502 37.2995 12.5874C37.3 12.673 37.2661 12.7552 37.2058 12.8159L36.0495 13.9829C35.9304 14.1024 35.7378 14.1036 35.6169 13.9858C34.011 12.4591 31.8796 11.608 29.6638 11.6079C27.4477 11.6079 25.3158 12.459 23.7097 13.9858C23.5889 14.1038 23.3961 14.1026 23.2771 13.9829L22.1208 12.8159C22.0606 12.7552 22.0265 12.673 22.0271 12.5874C22.0277 12.5019 22.0627 12.4198 22.1237 12.3599Z" fill="var(--fill-0, black)"/>
<path id="Mobile Signal" d="M2 16.3335C2.55228 16.3335 3 16.7812 3 17.3335V19.3335C2.99982 19.8856 2.55218 20.3335 2 20.3335H1C0.447824 20.3335 0.000175969 19.8856 0 19.3335V17.3335C0 16.7812 0.447715 16.3335 1 16.3335H2ZM6.66699 14.3335C7.21913 14.3337 7.66699 14.7813 7.66699 15.3335V19.3335C7.66682 19.8855 7.21902 20.3333 6.66699 20.3335H5.66699C5.11482 20.3335 4.66717 19.8856 4.66699 19.3335V15.3335C4.66699 14.7812 5.11471 14.3335 5.66699 14.3335H6.66699ZM11.333 11.9995C11.8852 11.9995 12.3328 12.4474 12.333 12.9995V19.3335C12.3328 19.8856 11.8852 20.3335 11.333 20.3335H10.333C9.78098 20.3333 9.33318 19.8855 9.33301 19.3335V12.9995C9.33318 12.4475 9.78098 11.9997 10.333 11.9995H11.333ZM16 9.6665C16.5523 9.6665 17 10.1142 17 10.6665V19.3335C16.9998 19.8856 16.5522 20.3335 16 20.3335H15C14.4478 20.3335 14.0002 19.8856 14 19.3335V10.6665C14 10.1142 14.4477 9.6665 15 9.6665H16Z" fill="var(--fill-0, black)"/>
<g id="Recording Indicator">
<circle id="Indicator" cx="7.33337" cy="3" r="3" fill="var(--fill-0, #FF9500)"/>
</g>
</g>
</svg>
