<svg preserveAspectRatio="none" width="100%" height="100%" overflow="visible" style="display: block;" viewBox="0 0 67 21" fill="none" xmlns="http://www.w3.org/2000/svg">
<g id="Right Side">
<g id="Battery">
<path id="Rectangle" opacity="0.35" d="M45.0002 9.83325H61.6662C62.8628 9.83325 63.8332 10.8036 63.8332 12.0002V18.0002C63.833 19.1967 62.8627 20.1663 61.6662 20.1663H45.0002C43.8037 20.1663 42.8334 19.1967 42.8332 18.0002V12.0002C42.8332 10.8036 43.8036 9.83325 45.0002 9.83325Z" stroke="var(--stroke-0, white)"/>
<path id="Combined Shape" opacity="0.4" d="M65.3332 12.9999V16.9999C66.1379 16.6611 66.6612 15.8731 66.6612 14.9999C66.6612 14.1268 66.1379 13.3387 65.3332 12.9999" fill="var(--fill-0, white)"/>
<path id="Rectangle_2" d="M44.3332 12.4333C44.3332 11.8257 44.8257 11.3333 45.4332 11.3333H61.2332C61.8407 11.3333 62.3332 11.8257 62.3332 12.4333V17.5666C62.3332 18.1741 61.8407 18.6666 61.2332 18.6666H45.4332C44.8257 18.6666 44.3332 18.1741 44.3332 17.5666V12.4333Z" fill="var(--fill-0, white)"/>
</g>
<path id="Wifi" fill-rule="evenodd" clip-rule="evenodd" d="M29.6637 11.608C31.8796 11.6081 34.0107 12.4596 35.6167 13.9863C35.7376 14.1042 35.9309 14.1027 36.05 13.983L37.206 12.8163C37.2663 12.7556 37.2999 12.6734 37.2994 12.5878C37.2989 12.5022 37.2644 12.4204 37.2033 12.3603C32.9882 8.3208 26.3384 8.3208 22.1233 12.3603C22.0623 12.4203 22.0276 12.5021 22.0271 12.5877C22.0265 12.6733 22.0601 12.7556 22.1203 12.8163L23.2767 13.983C23.3957 14.1029 23.5891 14.1044 23.71 13.9863C25.3162 12.4595 27.4476 11.608 29.6637 11.608ZM29.6637 15.4037C30.8812 15.4036 32.0552 15.8561 32.9577 16.6733C33.0797 16.7893 33.272 16.7868 33.391 16.6677L34.5457 15.501C34.6065 15.4398 34.6402 15.3568 34.6393 15.2705C34.6385 15.1843 34.603 15.102 34.541 15.042C31.7928 12.4856 27.5369 12.4856 24.7887 15.042C24.7266 15.102 24.6912 15.1843 24.6904 15.2706C24.6895 15.3569 24.7234 15.4399 24.7843 15.501L25.9387 16.6677C26.0577 16.7868 26.2499 16.7893 26.372 16.6733C27.2739 15.8567 28.447 15.4042 29.6637 15.4037ZM31.9767 17.9575C31.9784 18.044 31.9444 18.1274 31.8827 18.188L29.8853 20.2037C29.8268 20.2629 29.747 20.2963 29.6637 20.2963C29.5804 20.2963 29.5006 20.2629 29.442 20.2037L27.4443 18.188C27.3826 18.1274 27.3487 18.0439 27.3505 17.9574C27.3523 17.8709 27.3898 17.789 27.454 17.731C28.7296 16.6521 30.5978 16.6521 31.8733 17.731C31.9375 17.7891 31.9749 17.871 31.9767 17.9575Z" fill="var(--fill-0, white)"/>
<path id="Mobile Signal" fill-rule="evenodd" clip-rule="evenodd" d="M16 9.66663H15C14.4477 9.66663 14 10.1143 14 10.6666V19.3333C14 19.8856 14.4477 20.3333 15 20.3333H16C16.5523 20.3333 17 19.8856 17 19.3333V10.6666C17 10.1143 16.5523 9.66663 16 9.66663ZM10.3333 12H11.3333C11.8856 12 12.3333 12.4477 12.3333 13V19.3333C12.3333 19.8856 11.8856 20.3333 11.3333 20.3333H10.3333C9.78105 20.3333 9.33333 19.8856 9.33333 19.3333V13C9.33333 12.4477 9.78105 12 10.3333 12ZM6.66667 14.3333H5.66667C5.11438 14.3333 4.66667 14.781 4.66667 15.3333V19.3333C4.66667 19.8856 5.11438 20.3333 5.66667 20.3333H6.66667C7.21895 20.3333 7.66667 19.8856 7.66667 19.3333V15.3333C7.66667 14.781 7.21895 14.3333 6.66667 14.3333ZM2 16.3333H1C0.447715 16.3333 0 16.781 0 17.3333V19.3333C0 19.8856 0.447715 20.3333 1 20.3333H2C2.55228 20.3333 3 19.8856 3 19.3333V17.3333C3 16.781 2.55228 16.3333 2 16.3333Z" fill="var(--fill-0, white)"/>
<g id="Recording Indicator">
<circle id="Indicator" cx="7.33322" cy="3" r="3" fill="var(--fill-0, #FF9F0A)"/>
</g>
</g>
</svg>
