<svg preserveAspectRatio="none" width="100%" height="100%" overflow="visible" style="display: block;" viewBox="0 0 67 12" fill="none" xmlns="http://www.w3.org/2000/svg">
<g id="Right Side">
<g id="Battery">
<path id="Rectangle" opacity="0.35" d="M45.0002 0.502563H61.6662C62.8628 0.502563 63.8332 1.47294 63.8332 2.66956V8.66956C63.833 9.86602 62.8627 10.8356 61.6662 10.8356H45.0002C43.8037 10.8356 42.8334 9.86602 42.8332 8.66956V2.66956C42.8332 1.47294 43.8036 0.502563 45.0002 0.502563Z" stroke="var(--stroke-0, black)"/>
<path id="Combined Shape" opacity="0.4" d="M65.3332 3.66923V7.66923C66.1379 7.33045 66.6612 6.54236 66.6612 5.66923C66.6612 4.7961 66.1379 4.00801 65.3332 3.66923" fill="var(--fill-0, black)"/>
<path id="Rectangle_2" d="M44.3332 3.10256C44.3332 2.49505 44.8257 2.00256 45.4332 2.00256H61.2332C61.8407 2.00256 62.3332 2.49505 62.3332 3.10256V8.2359C62.3332 8.84341 61.8407 9.3359 61.2332 9.3359H45.4332C44.8257 9.3359 44.3332 8.84341 44.3332 8.2359V3.10256Z" fill="var(--fill-0, black)"/>
</g>
<path id="Wifi" fill-rule="evenodd" clip-rule="evenodd" d="M29.6637 2.27733C31.8796 2.27742 34.0107 3.12886 35.6167 4.65566C35.7376 4.77354 35.9309 4.77205 36.05 4.65233L37.206 3.48566C37.2663 3.42494 37.2999 3.34269 37.2994 3.25711C37.2989 3.17153 37.2644 3.08967 37.2033 3.02966C32.9882 -1.00989 26.3384 -1.00989 22.1233 3.02966C22.0623 3.08963 22.0276 3.17146 22.0271 3.25704C22.0265 3.34262 22.0601 3.42489 22.1203 3.48566L23.2767 4.65233C23.3957 4.77223 23.5891 4.77372 23.71 4.65566C25.3162 3.12876 27.4476 2.27732 29.6637 2.27733ZM29.6637 6.07299C30.8812 6.07292 32.0552 6.52545 32.9577 7.34266C33.0797 7.45864 33.272 7.45613 33.391 7.33699L34.5457 6.17033C34.6065 6.10913 34.6402 6.02612 34.6393 5.93985C34.6385 5.85359 34.603 5.77127 34.541 5.71133C31.7928 3.15494 27.5369 3.15494 24.7887 5.71133C24.7266 5.77127 24.6912 5.85363 24.6904 5.93992C24.6895 6.02621 24.7234 6.10922 24.7843 6.17033L25.9387 7.33699C26.0577 7.45613 26.2499 7.45864 26.372 7.34266C27.2739 6.52599 28.447 6.0735 29.6637 6.07299ZM31.9767 8.62681C31.9784 8.71332 31.9444 8.79672 31.8827 8.85733L29.8853 10.873C29.8268 10.9322 29.747 10.9656 29.6637 10.9656C29.5804 10.9656 29.5006 10.9322 29.442 10.873L27.4443 8.85733C27.3826 8.79668 27.3487 8.71325 27.3505 8.62674C27.3523 8.54023 27.3898 8.45831 27.454 8.40033C28.7296 7.32144 30.5978 7.32144 31.8733 8.40033C31.9375 8.45836 31.9749 8.54031 31.9767 8.62681Z" fill="var(--fill-0, black)"/>
<path id="Mobile Signal" fill-rule="evenodd" clip-rule="evenodd" d="M16 0.335815H15C14.4477 0.335815 14 0.783531 14 1.33582V10.0025C14 10.5548 14.4477 11.0025 15 11.0025H16C16.5523 11.0025 17 10.5548 17 10.0025V1.33582C17 0.783531 16.5523 0.335815 16 0.335815ZM10.3333 2.66915H11.3333C11.8856 2.66915 12.3333 3.11686 12.3333 3.66915V10.0025C12.3333 10.5548 11.8856 11.0025 11.3333 11.0025H10.3333C9.78105 11.0025 9.33333 10.5548 9.33333 10.0025V3.66915C9.33333 3.11686 9.78105 2.66915 10.3333 2.66915ZM6.66667 5.00248H5.66667C5.11438 5.00248 4.66667 5.4502 4.66667 6.00248V10.0025C4.66667 10.5548 5.11438 11.0025 5.66667 11.0025H6.66667C7.21895 11.0025 7.66667 10.5548 7.66667 10.0025V6.00248C7.66667 5.4502 7.21895 5.00248 6.66667 5.00248ZM2 7.00248H1C0.447715 7.00248 0 7.4502 0 8.00248V10.0025C0 10.5548 0.447715 11.0025 1 11.0025H2C2.55228 11.0025 3 10.5548 3 10.0025V8.00248C3 7.4502 2.55228 7.00248 2 7.00248Z" fill="var(--fill-0, black)"/>
</g>
</svg>
