<svg preserveAspectRatio="none" width="100%" height="100%" overflow="visible" style="display: block;" viewBox="0 0 67 12" fill="none" xmlns="http://www.w3.org/2000/svg">
<g id="Right Side">
<g id="Battery">
<path id="Rectangle" opacity="0.35" d="M45.0002 0.502563H61.6662C62.8628 0.502563 63.8332 1.47294 63.8332 2.66956V8.66956C63.833 9.86602 62.8627 10.8356 61.6662 10.8356H45.0002C43.8037 10.8356 42.8334 9.86602 42.8332 8.66956V2.66956C42.8332 1.47294 43.8036 0.502563 45.0002 0.502563Z" stroke="var(--stroke-0, white)"/>
<path id="Combined Shape" opacity="0.4" d="M65.3332 3.66923V7.66923C66.1379 7.33045 66.6612 6.54236 66.6612 5.66923C66.6612 4.7961 66.1379 4.00801 65.3332 3.66923" fill="var(--fill-0, white)"/>
<path id="Rectangle_2" d="M44.3332 3.10256C44.3332 2.49505 44.8257 2.00256 45.4332 2.00256H61.2332C61.8407 2.00256 62.3332 2.49505 62.3332 3.10256V8.2359C62.3332 8.84341 61.8407 9.3359 61.2332 9.3359H45.4332C44.8257 9.3359 44.3332 8.84341 44.3332 8.2359V3.10256Z" fill="var(--fill-0, white)"/>
</g>
<path id="Wifi" fill-rule="evenodd" clip-rule="evenodd" d="M29.6633 2.27733C31.8792 2.27742 34.0104 3.12886 35.6163 4.65566C35.7373 4.77354 35.9306 4.77205 36.0497 4.65233L37.2057 3.48566C37.266 3.42494 37.2996 3.34269 37.2991 3.25711C37.2986 3.17153 37.264 3.08967 37.203 3.02966C32.9879 -1.00989 26.3381 -1.00989 22.123 3.02966C22.0619 3.08963 22.0273 3.17146 22.0267 3.25704C22.0262 3.34262 22.0597 3.42489 22.12 3.48566L23.2763 4.65233C23.3954 4.77223 23.5888 4.77372 23.7097 4.65566C25.3158 3.12876 27.4472 2.27732 29.6633 2.27733ZM29.6633 6.07299C30.8808 6.07292 32.0549 6.52545 32.9573 7.34266C33.0794 7.45864 33.2717 7.45613 33.3907 7.33699L34.5453 6.17033C34.6061 6.10913 34.6399 6.02612 34.639 5.93985C34.6381 5.85359 34.6027 5.77127 34.5407 5.71133C31.7925 3.15494 27.5365 3.15494 24.7883 5.71133C24.7263 5.77127 24.6908 5.85363 24.69 5.93992C24.6892 6.02621 24.7231 6.10922 24.784 6.17033L25.9383 7.33699C26.0573 7.45613 26.2496 7.45864 26.3717 7.34266C27.2735 6.52599 28.4467 6.0735 29.6633 6.07299ZM31.9763 8.62681C31.9781 8.71332 31.9441 8.79672 31.8823 8.85733L29.885 10.873C29.8265 10.9322 29.7466 10.9656 29.6633 10.9656C29.58 10.9656 29.5002 10.9322 29.4417 10.873L27.444 8.85733C27.3823 8.79668 27.3483 8.71325 27.3502 8.62674C27.352 8.54023 27.3895 8.45831 27.4537 8.40033C28.7292 7.32144 30.5974 7.32144 31.873 8.40033C31.9372 8.45836 31.9746 8.54031 31.9763 8.62681Z" fill="var(--fill-0, white)"/>
<path id="Mobile Signal" fill-rule="evenodd" clip-rule="evenodd" d="M16 0.335937H15C14.4477 0.335937 14 0.783653 14 1.33594V10.0026C14 10.5549 14.4477 11.0026 15 11.0026H16C16.5523 11.0026 17 10.5549 17 10.0026V1.33594C17 0.783653 16.5523 0.335937 16 0.335937ZM10.3333 2.66927H11.3333C11.8856 2.66927 12.3333 3.11699 12.3333 3.66927V10.0026C12.3333 10.5549 11.8856 11.0026 11.3333 11.0026H10.3333C9.78105 11.0026 9.33333 10.5549 9.33333 10.0026V3.66927C9.33333 3.11699 9.78105 2.66927 10.3333 2.66927ZM6.66667 5.0026H5.66667C5.11438 5.0026 4.66667 5.45032 4.66667 6.0026V10.0026C4.66667 10.5549 5.11438 11.0026 5.66667 11.0026H6.66667C7.21895 11.0026 7.66667 10.5549 7.66667 10.0026V6.0026C7.66667 5.45032 7.21895 5.0026 6.66667 5.0026ZM2 7.0026H1C0.447715 7.0026 0 7.45032 0 8.0026V10.0026C0 10.5549 0.447715 11.0026 1 11.0026H2C2.55228 11.0026 3 10.5549 3 10.0026V8.0026C3 7.45032 2.55228 7.0026 2 7.0026Z" fill="var(--fill-0, white)"/>
</g>
</svg>
